HIERARCHY
ROOT Hips
{
	OFFSET 0.00000 0.00000 0.00000
	CHANNELS 6 Xposition Yposition Zposition Yrotation Zrotation Xrotation 
	JOINT Lumbar
	{
		OFFSET 0 0 0
		CHANNELS 3 Zrotation Xrotation Yrotation
		JOINT Neck
		{
			OFFSET 0.00 0.2701 0.00
			CHANNELS 3 Zrotation Xrotation Yrotation
			End Site
			{
				OFFSET 0.00 0.1379 0.00
			}
		}
		JOINT RightShoulder
		{
			OFFSET 0.0119 0.2289 0.1181
			CHANNELS 3 Zrotation Xrotation Yrotation
			JOINT RightElbow
			{
				OFFSET 0.00 -0.1475 0.00
				CHANNELS 2 Zrotation Yrotation
				JOINT RightWrist
				{
					OFFSET 0.00 -0.1605 0.00
					CHANNELS 2 Zrotation Xrotation
					End Site
					{
						OFFSET 0.0040 -0.1068 0.0006
					}
				}
			}
		}
		JOINT LeftShoulder
		{
			OFFSET 0.0119 0.2289 -0.1181
			CHANNELS 3 Zrotation Xrotation Yrotation
			JOINT LeftElbow
			{
				OFFSET 0.00 -0.1475 0.00
				CHANNELS 2 Zrotation Yrotation
				JOINT LeftWrist
				{
					OFFSET 0.00 -0.1605 0.00
					CHANNELS 2 Zrotation Xrotation
					End Site
					{
						OFFSET 0.0040 -0.1068 -0.0006
					}
				}
			}
		}
	}
	JOINT RightHip
	{
		OFFSET 0.0316 -0.0424 0.0458
		CHANNELS 3 Zrotation Xrotation Yrotation
		JOINT RightKnee
		{
			OFFSET 0.00 -0.2438 0.00
			CHANNELS 1 Zrotation
			JOINT RightAnkle
			{
				OFFSET 0.00 -0.2449 0.00
				CHANNELS 3 Zrotation Xrotation Yrotation
				End Site
				{
					OFFSET 0.1237 -0.0542 0.0051
				}
			}
		}
	}
	JOINT LeftHip
	{
		OFFSET 0.0316 -0.0424 -0.0458
		CHANNELS 3 Zrotation Xrotation Yrotation
		JOINT LeftKnee
		{
			OFFSET 0.00 -0.2438 0.00
			CHANNELS 1 Zrotation
			JOINT LeftAnkle
			{
				OFFSET 0.00 -0.2449 0.00
				CHANNELS 3 Zrotation Xrotation Yrotation
				End Site
				{
					OFFSET 0.1237 -0.0542 -0.0051
				}
			}
		}
	}
}
MOTION
Frames: 25
Frame Time: 0.02
8e-05 4e-05 2e-05 537.3899 -45.77893 0.81279 57.77092 -0.23013 0.0607 -10.08588 -1.66703 -1.25714 153.88647 -78.84916 -55.01529 12.81306 79.65004 2.98962 -5.4791 166.38617 78.14286 55.19167 11.64867 -75.36788 -0.254 8.51581 50.55905 -1.97778 -8.18862 -18.95001 -7.90864 -3.9028 -4.1974 53.4524 2.13469 3.40464 -24.33926 -8.45719 4.06172 4.34211
0.00012 4e-05 6e-05 537.40178 -45.78349 0.81066 57.76556 -0.23826 0.06052 -10.12969 -1.65507 -1.25563 154.02856 -78.84963 -54.9096 12.7996 79.64999 3.0319 -5.46501 166.38617 78.08468 55.38559 11.58994 -75.35343 -0.21463 8.47239 50.56041 -2.03014 -8.49941 -18.9496 -7.88558 -3.88019 -4.18417 53.45627 2.21554 3.79001 -24.33947 -8.42626 4.03963 4.3261
0.00017 5e-05 0.0001 537.41363 -45.78803 0.80854 57.76021 -0.24638 0.06036 -10.17346 -1.64313 -1.25412 154.16994 -78.85019 -54.80437 12.78615 79.64996 3.07406 -5.45094 166.38613 78.0267 55.57961 11.53119 -75.33897 -0.17527 8.42898 50.56174 -2.08238 -8.80949 -18.94918 -7.86257 -3.85763 -4.17098 53.4601 2.29622 4.17461 -24.33968 -8.39539 4.01758 4.31012
0.00022 5e-05 0.00014 537.42548 -45.79259 0.80641 57.75487 -0.25448 0.06019 -10.21715 -1.6312 -1.25261 154.31169 -78.85066 -54.69895 12.77273 79.6499 3.11622 -5.43689 166.38623 77.96868 55.77311 11.47261 -75.32453 -0.13601 8.38569 50.56308 -2.13458 -9.11936 -18.94877 -7.83958 -3.83509 -4.15778 53.46395 2.37682 4.55884 -24.33988 -8.36455 3.99556 4.29415
0.00026 6e-05 0.00018 537.43733 -45.79716 0.80428 57.74952 -0.2626 0.06001 -10.26084 -1.61925 -1.25109 154.45386 -78.85104 -54.5932 12.75932 79.64985 3.1585 -5.42283 166.38609 77.91049 55.9661 11.41409 -75.3102 -0.09679 8.34239 50.56445 -2.18688 -9.42983 -18.94835 -7.81654 -3.8125 -4.14457 53.46784 2.45757 4.94373 -24.34009 -8.33365 3.9735 4.27816
0.00031 6e-05 0.00022 537.44919 -45.80163 0.80216 57.74418 -0.2707 0.05988 -10.3048 -1.60734 -1.2496 154.59334 -78.85201 -54.4892 12.74576 79.6499 3.20042 -5.40877 166.3861 77.85301 56.16217 11.35484 -75.29551 -0.05713 8.29872 50.56569 -2.23899 -9.73906 -18.94795 -7.7936 -3.79001 -4.13141 53.47156 2.53812 5.32774 -24.3403 -8.30284 3.95147 4.26221
0.00036 6e-05 0.00026 537.46104 -45.80632 0.80002 57.73883 -0.27884 0.05965 -10.34816 -1.59537 -1.24806 154.73912 -78.8517 -54.38129 12.73255 79.64962 3.24302 -5.3947 166.38659 77.79401 56.35222 11.29721 -75.28136 -0.01842 8.25595 50.5672 -2.29142 -10.05049 -18.94751 -7.77049 -3.76735 -4.11814 53.47562 2.61894 5.71293 -24.34049 -8.27191 3.92941 4.2462
0.00041 7e-05 0.0003 537.47288 -45.81078 0.7979 57.73347 -0.28694 0.05951 -10.39209 -1.58345 -1.24657 154.87718 -78.85273 -54.27787 12.71893 79.64987 3.28498 -5.38066 166.38521 77.73671 56.54711 11.23794 -75.26706 0.02123 8.21215 50.56845 -2.34355 -10.3598 -18.94711 -7.74753 -3.74485 -4.10498 53.47934 2.69957 6.09732 -24.34071 -8.24106 3.90735 4.23023
0.00045 7e-05 0.00034 537.48479 -45.81503 0.79581 57.72817 -0.295 0.05948 -10.43667 -1.5716 -1.2451 155.01339 -78.85477 -54.17642 12.70515 79.64991 3.32621 -5.36656 166.38719 77.68027 56.75097 11.17717 -75.25119 0.0618 8.16788 50.56942 -2.39537 -10.66704 -18.94673 -7.72476 -3.72252 -4.09193 53.48274 2.77978 6.47984 -24.34093 -8.21041 3.88542 4.21434
0.0005 8e-05 0.00038 537.49653 -45.82073 0.79357 57.72276 -0.3033 0.05883 -10.47736 -1.55938 -1.24342 155.18306 -78.84912 -54.05305 12.69333 79.64858 3.37179 -5.35252 166.38683 77.61523 56.9124 11.12656 -75.24016 0.09639 8.12868 50.57212 -2.44917 -10.98775 -18.94618 -7.7009 -3.69914 -4.07819 53.4883 2.86186 6.87047 -24.34105 -8.17891 3.86312 4.19811
0.00054 8e-05 0.00042 537.5085 -45.82323 0.79165 57.71742 -0.31108 0.05945 -10.52637 -1.54793 -1.2422 155.26759 -78.8609 -53.98269 12.67671 79.65176 3.40811 -5.33857 166.38054 77.57066 57.15739 11.05355 -75.22163 0.14403 8.07728 50.5711 -2.49865 -11.27902 -18.94603 -7.67937 -3.67801 -4.06593 53.4891 2.94033 7.24561 -24.34143 -8.14902 3.84139 4.1825
0.00056 7e-05 0.00046 537.52215 -45.81798 0.79052 57.71342 -0.31751 0.06379 -10.59755 -1.53859 -1.24212 155.20823 -78.91091 -54.00809 12.65088 79.65209 3.41668 -5.32404 166.3986 77.56569 57.65179 10.92597 -75.16287 0.22378 8.0015 50.56022 -2.53751 -11.49735 -18.94662 -7.66406 -3.66283 -4.05749 53.47834 3.00589 7.56385 -24.34222 -8.12517 3.823 4.1693
0.00056 6e-05 0.00051 537.53587 -45.80931 0.78975 57.7092 -0.32345 0.06933 -10.67723 -1.52998 -1.24255 155.02809 -78.98018 -54.09892 12.61852 79.65829 3.4144 -5.31042 166.36978 77.58562 58.20469 10.77444 -75.10214 0.317 7.90986 50.54557 -2.57186 -11.68475 -18.94771 -7.65112 -3.64996 -4.05057 53.46258 3.06823 7.86862 -24.34335 -8.10271 3.80491 4.1566
0.00057 5e-05 0.00056 537.54882 -45.80153 0.78884 57.7044 -0.3295 0.0742 -10.75341 -1.52108 -1.24278 154.86838 -79.04696 -54.18845 12.5878 79.67363 3.4212 -5.29612 166.37856 77.60333 58.74537 10.6296 -75.05272 0.40683 7.82199 50.53235 -2.60744 -11.88106 -18.94873 -7.63722 -3.63618 -4.0431 53.44803 3.13418 8.18971 -24.34449 -8.0785 3.78544 4.14314
0.00057 4e-05 0.00061 537.56473 -45.79659 0.78773 57.70273 -0.33582 0.07968 -10.82798 -1.51217 -1.24276 154.93057 -79.08747 -54.14578 12.56667 79.64522 3.41871 -5.28029 166.45592 77.57741 59.31473 10.50314 -74.95145 0.48643 7.7565 50.52014 -2.6463 -12.09864 -18.94894 -7.62284 -3.62182 -4.03506 53.43768 3.19163 8.47015 -24.34481 -8.05879 3.771 4.13181
0.00059 3e-05 0.00065 537.5747 -45.78488 0.78728 57.69416 -0.34169 0.08404 -10.90806 -1.50324 -1.24352 154.40584 -79.18707 -54.40939 12.519 79.70169 3.42263 -5.27122 166.20695 77.65488 59.72634 10.33181 -74.96759 0.58895 7.63072 50.50517 -2.67747 -12.26509 -18.95118 -7.61 -3.60921 -4.02854 53.41774 3.2653 8.82903 -24.34706 -8.03031 3.74643 4.11629
0.00062 -1e-05 0.00069 537.56677 -45.75583 0.78736 57.66907 -0.34473 0.08598 -10.99932 -1.49604 -1.24504 153.13659 -79.44017 -55.3462 12.44598 80.06257 3.53542 -5.24958 166.6036 77.94489 60.69407 10.05263 -75.21529 0.76176 7.43216 50.48198 -2.68672 -12.29385 -18.95719 -7.60122 -3.60089 -4.02598 53.36995 3.39078 9.43376 -24.35355 -7.97504 3.69149 4.0879
0.00067 -5e-05 0.00072 537.55326 -45.72014 0.78837 57.6364 -0.3477 0.08647 -11.09562 -1.48842 -1.24758 151.14015 -79.74845 -56.60106 12.34019 80.49953 3.63827 -5.23894 166.42929 78.34335 61.3475 9.72876 -75.59252 0.95308 7.16018 50.45671 -2.68878 -12.27317 -18.96567 -7.59384 -3.59421 -4.02486 53.31341 3.53149 10.11293 -24.3622 -7.91132 3.62677 4.0555
0.00073 -0.0001 0.00076 537.54314 -45.68701 0.7897 57.60578 -0.35174 0.08711 -11.19165 -1.47969 -1.25047 148.89943 -80.04051 -57.83468 12.21598 80.84942 3.68799 -5.24562 165.45555 78.74519 61.4414 9.41675 -75.97927 1.13193 6.85846 50.43309 -2.6952 -12.27755 -18.974 -7.58562 -3.58678 -4.02298 53.26224 3.66119 10.74117 -24.37051 -7.85294 3.56805 4.0257
0.00074 -0.00013 0.00079 537.52897 -45.65514 0.78773 57.58175 -0.35115 0.09035 -11.28184 -1.47649 -1.24987 149.00976 -80.31454 -58.62034 12.22242 81.40382 3.98179 -5.16458 168.7761 78.95524 64.36151 9.13334 -76.1023 1.3373 6.80828 50.40531 -2.69657 -12.26911 -18.97776 -7.57842 -3.57957 -4.02161 53.204 3.8082 11.44164 -24.37605 -7.78826 3.5028 3.9926
0.00084 -0.00019 0.00083 537.52249 -45.61979 0.79308 57.54133 -0.36049 0.0873 -11.38226 -1.46163 -1.25685 144.14145 -80.61552 -60.32553 11.96127 81.57195 3.76365 -5.26073 163.23634 79.55297 61.49662 8.78788 -76.77399 1.48048 6.23491 50.38708 -2.70716 -12.27703 -18.99225 -7.56927 -3.57214 -4.01947 53.15973 3.92261 12.00888 -24.38798 -7.73469 3.44881 3.96542
0.00112 -0.00032 0.00088 537.53335 -45.57063 0.81634 57.46423 -0.39471 0.07177 -11.53422 -1.41488 -1.28378 124.93875 -81.17641 -65.2696 10.86345 80.46123 2.15169 -5.91392 131.47314 81.51223 41.19509 8.21396 -79.20697 1.54837 4.07779 50.38423 -2.74197 -12.33378 -19.03028 -7.55538 -3.56458 -4.01528 53.1455 3.94523 12.19602 -24.41601 -7.71393 3.42827 3.95555
0.00149 -0.00048 0.00094 537.55294 -45.51931 0.84723 57.36929 -0.4394 0.04924 -11.69079 -1.35627 -1.3184 100.89781 -81.7241 -70.99801 9.5165 78.99004 0.02622 -6.7325 91.1583 83.79766 15.35703 7.5912 -82.14162 1.53802 1.42407 50.39325 -2.7868 -12.41038 -19.08002 -7.53928 -3.55657 -4.0102 53.14762 3.93432 12.24577 -24.45056 -7.70463 3.41938 3.95176
0.00184 -0.00064 0.00099 537.57217 -45.47283 0.87611 57.27853 -0.48098 0.02679 -11.83026 -1.30306 -1.34999 79.56921 -82.14878 -75.83747 8.35401 77.81748 -1.88124 -7.42841 56.01405 85.72644 -6.92122 7.03647 -84.65692 1.49229 -0.89672 50.40438 -2.82919 -12.48365 -19.12802 -7.52349 -3.54817 -4.00525 53.14934 3.93726 12.3542 -24.48283 -7.69007 3.40521 3.94519
0.0021 -0.00077 0.00105 537.57666 -45.40986 0.89926 57.20547 -0.51565 0.01689 -12.03691 -1.25014 -1.37974 56.03166 -83.12494 -82.87281 6.89277 76.09994 -3.74284 -8.32284 15.46453 88.54231 -33.56514 6.28971 -87.96061 1.7307 -3.66466 50.38367 -2.86285 -12.53138 -19.1611 -7.51062 -3.54231 -4.00148 53.12121 3.9459 12.47985 -24.5124 -7.67545 3.39073 3.9386
